<?xml version="1.0" encoding="UTF-8"?>
<svg width="24px" height="24px" viewBox="0 0 24 24" version="1.1" xmlns="http://www.w3.org/2000/svg" xmlns:xlink="http://www.w3.org/1999/xlink">
    <title>icon / tabbar / o备份 8@2x</title>
    <g id="icon-/-tabbar-/-o备份-8" stroke="none" stroke-width="1" fill="none" fill-rule="evenodd">
        <g id="Graph" fill="#FF42A1" transform="translate(2.000000, 2.000000)">
            <path d="M18.1818182,15.4978249 C18.1818182,14.9957479 18.588832,14.588734 19.0909091,14.588734 C19.5929861,14.588734 20,14.9957479 20,15.4978249 L20,18.1818182 C20,19.1859723 19.1859723,20 18.1818182,20 L12.7272727,20 C11.7231186,20 10.9090909,19.1859723 10.9090909,18.1818182 L10.9090909,12.7272727 C10.9090909,11.7231186 11.7231186,10.9090909 12.7272727,10.9090909 L18.1818182,10.9090909 C19.1859723,10.9090909 20,11.7231186 20,12.7272727 C20,13.2293498 19.5929861,13.6363636 19.0909091,13.6363636 C18.588832,13.6363636 18.1818182,13.2293498 18.1818182,12.7272727 L12.7272727,12.7272727 L12.7272727,18.1818182 L18.1818182,18.1818182 L18.1818182,15.4978249 Z" id="Path"></path>
            <path d="M11.8181818,5.45454545 C11.3161048,5.45454545 10.9090909,5.04753159 10.9090909,4.54545455 C10.9090909,4.0433775 11.3161048,3.63636364 11.8181818,3.63636364 L18.1818182,3.63636364 C18.6838952,3.63636364 19.0909091,4.0433775 19.0909091,4.54545455 C19.0909091,5.04753159 18.6838952,5.45454545 18.1818182,5.45454545 L11.8181818,5.45454545 Z" id="Path"></path>
            <path d="M14.8117211,2.46100616 C14.456699,2.10598408 14.456699,1.53037956 14.8117211,1.17535747 C15.1667432,0.820335388 15.7423477,0.820335388 16.0973698,1.17535747 L18.8246425,3.9026302 C19.1796646,4.25765228 19.1796646,4.83325681 18.8246425,5.18827889 L16.0973698,7.91555162 C15.7423477,8.2705737 15.1667432,8.2705737 14.8117211,7.91555162 C14.456699,7.56052954 14.456699,6.98492501 14.8117211,6.62990293 L16.8961695,4.54545455 L14.8117211,2.46100616 Z" id="Path"></path>
            <path d="M1.81818182,16.3636364 C1.31610477,16.3636364 0.909090909,15.9566225 0.909090909,15.4545455 C0.909090909,14.9524684 1.31610477,14.5454545 1.81818182,14.5454545 L8.18181818,14.5454545 C8.68389523,14.5454545 9.09090909,14.9524684 9.09090909,15.4545455 C9.09090909,15.9566225 8.68389523,16.3636364 8.18181818,16.3636364 L1.81818182,16.3636364 Z" id="Path" transform="translate(5.000000, 15.454545) scale(-1, 1) translate(-5.000000, -15.454545) "></path>
            <path d="M0.266266563,13.3700971 C-0.0887555209,13.015075 -0.0887555209,12.4394705 0.266266563,12.0844484 C0.621288646,11.7294263 1.19689317,11.7294263 1.55191526,12.0844484 L4.27918798,14.8117211 C4.63421007,15.1667432 4.63421007,15.7423477 4.27918798,16.0973698 L1.55191526,18.8246425 C1.19689317,19.1796646 0.621288646,19.1796646 0.266266563,18.8246425 C-0.0887555209,18.4696204 -0.0887555209,17.8940159 0.266266563,17.5389938 L2.35071494,15.4545455 L0.266266563,13.3700971 Z" id="Path" transform="translate(2.272727, 15.454545) scale(-1, 1) translate(-2.272727, -15.454545) "></path>
            <path d="M7.18661697,3.86202042 C7.06129492,3.37583554 7.35383205,2.88011122 7.84001693,2.75478917 C8.32620182,2.62946712 8.82192614,2.92200424 8.94724819,3.40818913 C9.04234212,3.77710449 9.09090909,4.15848172 9.09090909,4.54545455 C9.09090909,7.05583977 7.05583977,9.09090909 4.54545455,9.09090909 C2.03506932,9.09090909 0,7.05583977 0,4.54545455 C0,2.03506932 2.03506932,0 4.54545455,0 C5.35412606,0 6.13398599,0.212263345 6.81981365,0.609219555 C7.25435232,0.860730003 7.40272601,1.4168827 7.15121556,1.85142137 C6.89970511,2.28596003 6.34355242,2.43433372 5.90901375,2.18282327 C5.49816794,1.94502622 5.03213897,1.81818182 4.54545455,1.81818182 C3.03922341,1.81818182 1.81818182,3.03922341 1.81818182,4.54545455 C1.81818182,6.05168568 3.03922341,7.27272727 4.54545455,7.27272727 C6.05168568,7.27272727 7.27272727,6.05168568 7.27272727,4.54545455 C7.27272727,4.31190187 7.2435769,4.08299556 7.18661697,3.86202042 Z" id="Path"></path>
        </g>
    </g>
</svg>