<?xml version="1.0" encoding="UTF-8"?>
<svg width="24px" height="24px" viewBox="0 0 24 24" version="1.1" xmlns="http://www.w3.org/2000/svg" xmlns:xlink="http://www.w3.org/1999/xlink">
    <title>icon / tabbar / o备份 10@2x</title>
    <g id="icon-/-tabbar-/-o备份-10" stroke="none" stroke-width="1" fill="none" fill-rule="evenodd">
        <g id="编组" fill="#FF42A1">
            <path d="M19.2,2 C20.1941125,2 21,2.8954305 21,4 L21,17.4142136 L16.8727922,22 L4.8,22 C3.80588745,22 3,21.1045695 3,20 L3,4 C3,2.8954305 3.80588745,2 4.8,2 L19.2,2 Z M19.2,4 L4.8,4 L4.8,20 L14.7,19.999 L14.7,17 C14.7,15.8954305 15.5058875,15 16.5,15 L19.2,15 L19.2,4 Z M18.826,17 L16.5,17 L16.5,19.585 L18.826,17 Z M12.9,15 L12.9,17 L7.5,17 L7.5,15 L12.9,15 Z M16.5,11 L16.5,13 L7.5,13 L7.5,11 L16.5,11 Z M16.5,7 L16.5,9 L7.5,9 L7.5,7 L16.5,7 Z" id="icon"></path>
        </g>
    </g>
</svg>