<?xml version="1.0" encoding="UTF-8"?>
<svg width="24px" height="24px" viewBox="0 0 24 24" version="1.1" xmlns="http://www.w3.org/2000/svg" xmlns:xlink="http://www.w3.org/1999/xlink">
    <title>添加资产/选中备份 8</title>
    <g id="添加资产/选中备份-8" stroke="none" stroke-width="1" fill="none" fill-rule="evenodd">
        <path d="M18.5454545,6.5 C21.5579168,6.5 24,8.91766235 24,11.9 C24,14.8823376 21.5579168,17.3 18.5454545,17.3 L14.1818182,17.3 L14.1818182,15.14 L18.5454545,15.14 C20.3529319,15.14 21.8181818,13.6894026 21.8181818,11.9 C21.8181818,10.1105974 20.3529319,8.66 18.5454545,8.66 L14.1818182,8.66 L14.1818182,6.5 L18.5454545,6.5 Z M9.81818182,6.5 L9.81818182,8.66 L5.45454545,8.66 C3.64706809,8.66 2.18181818,10.1105974 2.18181818,11.9 C2.18181818,13.6894026 3.64706809,15.14 5.45454545,15.14 L9.81818182,15.14 L9.81818182,17.3 L5.45454545,17.3 C2.44208318,17.3 -5.5067062e-14,14.8823376 -5.5067062e-14,11.9 C-5.5067062e-14,8.91766235 2.44208318,6.5 5.45454545,6.5 L9.81818182,6.5 Z M17.4545455,10.82 L17.4545455,12.98 L6.54545455,12.98 L6.54545455,10.82 L17.4545455,10.82 Z" id="icon" fill="#FF42A1" transform="translate(12.000000, 11.900000) rotate(-45.000000) translate(-12.000000, -11.900000) "></path>
    </g>
</svg>