<?xml version="1.0" encoding="UTF-8"?>
<svg width="24px" height="24px" viewBox="0 0 24 24" version="1.1" xmlns="http://www.w3.org/2000/svg" xmlns:xlink="http://www.w3.org/1999/xlink">
    <title>icon / tabbar / o备份 4@2x</title>
    <g id="icon-/-tabbar-/-o备份-4" stroke="none" stroke-width="1" fill="none" fill-rule="evenodd">
        <g id="Diamond" fill="#FF42A1" transform="translate(2.000000, 3.000000)">
            <path d="M16.311689,0 L16.4135884,0.00627363899 C16.5591293,0.0127169195 16.7051281,0.0525716252 16.8387651,0.128872823 C17.057444,0.253729328 17.2009418,0.452152043 17.25526,0.670778238 L19.8679228,4.73112446 L19.8786638,4.74793884 C19.8896869,4.76593023 19.9000456,4.78433432 19.9097078,4.80312073 L19.8679228,4.73112446 C19.8909547,4.76689035 19.9108713,4.8032873 19.9278004,4.84009873 C19.935328,4.85712686 19.9425106,4.8744714 19.9491089,4.89207916 C20.0256118,5.09144631 20.0172836,5.29982131 19.9444003,5.48374247 C19.9429772,5.48743137 19.9416669,5.49070054 19.9403364,5.49396014 L19.9220222,5.53 C19.8954673,5.60307826 19.8618844,5.6674325 19.8190379,5.72848876 L10.7579379,18.6154229 C10.3980997,19.1281924 9.60495743,19.1281924 9.2451192,18.6154229 L0.154210112,5.66087744 C0.1362683,5.63522311 0.120565757,5.61004499 0.106213688,5.58418531 L0.154210112,5.66087744 C0.0582731433,5.52416726 0.00976073905,5.37639759 0.00133639295,5.23059388 C0.00112428765,5.22171101 0.000693396893,5.21233866 0.00042630563,5.2029481 L2.05360769e-07,5.18484011 C-6.31033185e-06,5.17571875 0.000142234291,5.16661052 0.000444022327,5.15751866 C0.000961428472,5.13767624 0.00229614924,5.11726889 0.00442771451,5.09683747 C0.00577094286,5.08744829 0.00686723862,5.0787351 0.0081023283,5.07004712 C0.0190320692,4.98757852 0.0437906424,4.90430304 0.0832456598,4.82321532 C0.102674313,4.78431028 0.120586289,4.75302857 0.140425078,4.72287102 L2.76870837,0.638474956 C2.82882922,0.432243285 2.96923809,0.246764768 3.17775509,0.128149075 C3.29618248,0.0607812005 3.42424991,0.021994804 3.55306536,0.00967006213 C3.59884101,0.00337689993 3.64485857,0 3.69136813,0 L16.311689,0 Z M12.4590222,6.045 L7.59402219,6.045 L10.0270222,14.135 L12.4590222,6.045 Z M5.70402219,6.045 L2.60927137,6.04545455 L8.02202219,13.759 L5.70402219,6.045 Z M17.4090222,6.045 L14.3490222,6.045 L12.0650222,13.644 L17.4090222,6.045 Z M3.65702219,2.571 L2.53248437,4.31818182 L4.75802219,4.318 L3.65702219,2.571 Z M10.0066418,2.25187718 L8.26402219,4.318 L11.7430222,4.318 L10.0066418,2.25187718 Z M16.3490222,2.577 L15.2480222,4.318 L17.4705728,4.31818182 L16.3490222,2.577 Z M8.11902219,1.727 L5.24502219,1.727 L6.47495129,3.67813364 L8.11902219,1.727 Z M14.7670222,1.727 L11.8920222,1.727 L13.5326174,3.67828419 L14.7670222,1.727 Z" id="形状结合"></path>
        </g>
    </g>
</svg>