<?xml version="1.0" encoding="UTF-8"?>
<svg width="24px" height="24px" viewBox="0 0 24 24" version="1.1" xmlns="http://www.w3.org/2000/svg" xmlns:xlink="http://www.w3.org/1999/xlink">
    <title>icon / tabbar / token_trading  备份 4@2x</title>
    <g id="icon-/-tabbar-/-token_trading--备份-4" stroke="none" stroke-width="1" fill="none" fill-rule="evenodd">
        <g id="Group-2" fill="#909DB2">
            <path d="M22,6 L22,20 C22,21.1045695 21.1045695,22 20,22 L4,22 C2.8954305,22 2,21.1045695 2,20 L2,18 L9,11 L13,15 L22,6 Z M20,11 L13,18 L9,14 L4,19 L4,20 L20,20 L20,11 Z M21.7989899,2.55025253 L12.6066017,11.7426407 L9.07106781,8.20710678 L3.41421356,13.863961 L2,12.4497475 L9.07106781,5.37867966 L12.6066017,8.91421356 L17.5563492,3.96446609 L16.1421356,2.55025253 L21.7989899,2.55025253 Z" id="形状结合"></path>
        </g>
    </g>
</svg>