<?xml version="1.0" encoding="UTF-8"?>
<svg width="24px" height="24px" viewBox="0 0 24 24" version="1.1" xmlns="http://www.w3.org/2000/svg" xmlns:xlink="http://www.w3.org/1999/xlink">
    <title>icon / tabbar / o备份 5@2x</title>
    <g id="icon-/-tabbar-/-o备份-5" stroke="none" stroke-width="1" fill="none" fill-rule="evenodd">
        <g id="未标题-16-03" fill="#909DB2" transform="translate(1.000000, 1.000000)">
            <path d="M8,2 C10.2349325,2 12.1844634,3.2219498 13.2169372,5.03419399 C12.482486,5.09699676 11.7744104,5.24820579 11.1020677,5.47673432 C10.3703731,4.57557802 9.2524033,4 8,4 C5.790861,4 4,5.790861 4,8 C4,9.2524033 4.57557802,10.3703731 5.47664073,11.1038162 C5.24820579,11.7744104 5.09699676,12.482486 5.03370057,13.2157012 C3.2219498,12.1844634 2,10.2349325 2,8 C2,4.6862915 4.6862915,2 8,2 Z" id="形状结合"></path>
            <path d="M14,7 C17.8659932,7 21,10.1340068 21,14 C21,17.8659932 17.8659932,21 14,21 C10.1340068,21 7,17.8659932 7,14 C7,10.1340068 10.1340068,7 14,7 Z M14,9 C11.2385763,9 9,11.2385763 9,14 C9,16.7614237 11.2385763,19 14,19 C16.7614237,19 19,16.7614237 19,14 C19,11.2385763 16.7614237,9 14,9 Z" id="形状结合"></path>
            <path d="M16,4 L14,2 L16,0 L16,1.2 L16,1.2 C19.7751611,1.2 21.8,3.22483887 21.8,7 C21.8,7.4418278 21.4418278,7.8 21,7.8 C20.5581722,7.8 20.2,7.4418278 20.2,7 C20.2,4.10849447 18.8915055,2.8 16,2.8 L16,4 Z" id="形状结合"></path>
            <path d="M2,18 L-2.30926389e-14,16 L2,14 L2,15.2 L2,15.2 C5.77516113,15.2 7.8,17.2248389 7.8,21 C7.8,21.4418278 7.4418278,21.8 7,21.8 C6.5581722,21.8 6.2,21.4418278 6.2,21 C6.2,18.1084945 4.89150553,16.8 2,16.8 L2,18 Z" id="形状结合" transform="translate(3.900000, 17.900000) scale(-1, -1) translate(-3.900000, -17.900000) "></path>
        </g>
    </g>
</svg>