<?xml version="1.0" encoding="UTF-8"?>
<svg width="24px" height="24px" viewBox="0 0 24 24" version="1.1" xmlns="http://www.w3.org/2000/svg" xmlns:xlink="http://www.w3.org/1999/xlink">
    <title>矩形</title>
    <g id="页面-1" stroke="none" stroke-width="1" fill="none" fill-rule="evenodd">
        <g id="H5-连接钱包备份-5" transform="translate(-263.000000, -192.000000)" fill="#FF42A1">
            <g id="编组-19" transform="translate(227.000000, 48.000000)">
                <g id="编组-8" transform="translate(16.000000, 138.000000)">
                    <g id="编组-4" transform="translate(20.000000, 6.000000)">
                        <g id="telegram" transform="translate(5.000000, 4.000000)">
                            <path d="M14,0 L14,12.8 C13.5704452,12.8 13.2222222,13.1581722 13.2222222,13.6 C13.2222222,14.0418278 13.5704452,14.4 14,14.4 L14,16 L2.33333333,16 C1.04466892,16 0,14.9254834 0,13.6 L0,2.4 C0,1.0745166 1.04466892,0 2.33333333,0 L14,0 Z M11.7994378,12.8 L2.33333333,12.8 C1.90377853,12.8 1.55555556,13.1581722 1.55555556,13.6 C1.55555556,14.0418278 1.90377853,14.4 2.33333333,14.4 L11.7994378,14.4 C11.7134533,14.1497769 11.6666667,13.8805083 11.6666667,13.6 C11.6666667,13.3194917 11.7134533,13.0502231 11.7994378,12.8 Z M12.4444444,1.6 L2.33333333,1.6 C1.90377853,1.6 1.55555556,1.9581722 1.55555556,2.4 L1.55555556,11.3365646 C1.79882805,11.2481234 2.06061689,11.2 2.33333333,11.2 L12.4444444,11.2 L12.4444444,1.6 Z" id="icon"></path>
                        </g>
                    </g>
                </g>
            </g>
        </g>
    </g>
</svg>