<?xml version="1.0" encoding="UTF-8"?>
<svg width="80px" height="24px" viewBox="0 0 80 24" version="1.1" xmlns="http://www.w3.org/2000/svg" xmlns:xlink="http://www.w3.org/1999/xlink">
    <title>lambda LOGO导出-02</title>
    <g id="页面-1" stroke="none" stroke-width="1" fill="none" fill-rule="evenodd">
        <g id="H5-连接钱包备份-5" transform="translate(-253.000000, -64.000000)" fill-rule="nonzero">
            <g id="编组-19" transform="translate(227.000000, 48.000000)">
                <g id="编组-13" transform="translate(26.000000, 16.000000)">
                    <g id="lambda-LOGO导出-02" transform="translate(0.000000, 0.800000)">
                        <path d="M49.1446809,9.97304965 C49.0417697,10.0748185 48.9446884,10.1823182 48.8539007,10.2950355 C48.7627054,10.1826665 48.6656438,10.0751885 48.5631206,9.97304965 C47.5981568,9.00411418 46.1840533,8.63389589 44.8680851,9.00567376 L44.8680851,8.83120567 L43.2085106,8.83120567 L43.2085106,16.4624113 L44.8680851,16.4624113 L44.8680851,10.7673759 C45.5329967,10.4173979 46.3322596,10.4393514 46.9769573,10.8253008 C47.621655,11.2112501 48.0185273,11.905365 48.0241135,12.6567376 L48.0241135,16.4624113 L49.6836879,16.4624113 L49.6836879,12.6567376 C49.6766653,12.0896147 49.9046281,11.5448656 50.3134752,11.151773 C50.7141362,10.741304 51.2661957,10.5140156 51.8397163,10.5234043 C51.9825924,10.5239919 52.125085,10.5382412 52.2652482,10.5659574 L52.2652482,8.89503546 C52.1241863,8.87584133 51.9820692,8.86541941 51.8397163,8.86382979 C50.8271827,8.84787851 49.8526377,9.2489807 49.1446809,9.97304965 L49.1446809,9.97304965 Z M28.8723404,5.44680851 L27.212766,5.44680851 L27.212766,15.6326241 C27.22397,16.086181 27.5889963,16.4512073 28.0425532,16.4624113 L33.8326241,16.4624113 L33.8326241,14.8028369 L28.8680851,14.8028369 L28.8723404,5.44680851 Z M41.7106383,8.80567376 L40.0539007,8.80567376 L40.0539007,9.51489362 C39.4263453,9.0786466 38.6776699,8.85042217 37.9134752,8.86241135 C36.9009416,8.84646007 35.9263966,9.24756226 35.2184397,9.97163121 C34.5011212,10.6830235 34.0976339,11.6514423 34.0976339,12.6617021 C34.0976339,13.6719619 34.5011212,14.6403807 35.2184397,15.351773 C35.9263966,16.075842 36.9009416,16.4769442 37.9134752,16.4609929 C38.4453222,16.461128 38.9712075,16.3489907 39.4567376,16.1319149 L39.4411348,14.1716312 C38.8260961,14.792662 37.8969712,14.9809239 37.0886981,14.6482884 C36.280425,14.315653 35.7529496,13.527944 35.7531915,12.6539007 C35.7457354,12.0868233 35.9743853,11.5421742 36.3843972,11.1503546 C37.2228731,10.3127547 38.5813822,10.3127547 39.4198582,11.1503546 C39.8287052,11.5434472 40.0566681,12.0881963 40.0496454,12.6553191 L40.0496454,16.4609929 L41.7092199,16.4609929 L41.7092199,12.6553191 C41.7092199,12.6312057 41.7092199,12.6099291 41.7092199,12.5858156 L41.7106383,8.80567376 Z M59.4326241,8.86382979 C58.9002768,8.86178709 58.3737974,8.97501888 57.8893617,9.19574468 L57.8893617,11.1702128 C58.2923041,10.7506208 58.8509264,10.5164923 59.4326241,10.5234043 C60.0062407,10.5135082 60.5584933,10.7408761 60.9588652,11.151773 C61.3679232,11.544134 61.5959635,12.0885546 61.5886525,12.6553191 C61.6232607,13.8122241 60.7348062,14.7884348 59.5797644,14.8626329 C58.4247226,14.9368309 57.4186654,14.0823207 57.3049645,12.9304965 L57.3049645,8.66666667 L57.2865248,8.66666667 L57.2865248,5.44680851 L55.6269504,5.44680851 L55.6269504,12.6468085 C55.6269504,12.7886525 55.635461,12.9304965 55.648227,13.0723404 L55.648227,16.4836879 L57.3049645,16.4836879 L57.3049645,15.8269504 C58.4756962,16.6133962 59.9847692,16.6899057 61.2290383,16.0258996 C62.4733074,15.3618935 63.2498226,14.0656762 63.248227,12.6553191 C63.2641439,11.6442681 62.858087,10.6723016 62.1276596,9.97304965 C61.4197027,9.2489807 60.4451577,8.84787851 59.4326241,8.86382979 L59.4326241,8.86382979 Z M79.9007092,12.5829787 L79.9007092,8.66666667 L78.2453901,8.66666667 L78.2453901,9.5177305 C77.6177502,9.08165759 76.8691322,8.85345067 76.1049645,8.86524823 C75.0926218,8.8503025 74.1184582,9.25124773 73.4099291,9.97446809 C72.6936649,10.6864229 72.2909076,11.654631 72.2909076,12.664539 C72.2909076,13.674447 72.6936649,14.6426551 73.4099291,15.3546099 C74.1178859,16.0786789 75.0924309,16.4797811 76.1049645,16.4638298 C76.6367982,16.4638371 77.1626571,16.3517054 77.648227,16.1347518 L77.6312057,14.1744681 C77.0166837,14.7969712 76.086792,14.986165 75.2778867,14.6532693 C74.4689813,14.3203737 73.9416172,13.5314631 73.9432624,12.6567376 C73.9359514,12.089973 74.1639917,11.5455524 74.5730496,11.1531915 C75.412012,10.3154288 76.7709667,10.3154288 77.6099291,11.1531915 C78.018987,11.5455524 78.2470273,12.089973 78.2397163,12.6567376 L78.2397163,16.4865248 L79.9007092,16.4865248 L79.9007092,16.4695035 L79.9007092,16.4695035 L79.9007092,12.6553191 C79.9049645,12.6312057 79.9021277,12.6070922 79.9007092,12.5829787 Z M69.635461,8.66666667 L69.635461,8.66666667 L69.635461,12.7659574 C69.5985149,13.6203624 69.0587832,14.3716624 68.2608607,14.6793842 C67.4629383,14.9871059 66.5585112,14.7927511 65.9574468,14.1843972 C65.1274121,13.3422518 65.1274121,11.9896631 65.9574468,11.1475177 C66.364333,10.7414186 66.9166325,10.514758 67.4914914,10.5179546 C68.0663503,10.5211513 68.6160949,10.7539399 69.0184397,11.164539 L69.0184397,9.19574468 C67.8439972,8.67031751 66.483268,8.77609319 65.4041309,9.47670137 C64.3249937,10.1773096 63.6746045,11.3772122 63.6765895,12.6638298 C63.6740504,14.075954 64.4530522,15.3735708 65.7005658,16.0352436 C66.9480794,16.6969165 68.4592978,16.6140172 69.6269504,15.8198582 L69.6269504,16.4794326 L71.2836879,16.4794326 L71.2836879,12.8368794 C71.2836879,12.7787234 71.2907801,12.7219858 71.2907801,12.6638298 L71.2907801,5.46241135 L69.635461,5.46241135 L69.635461,8.66666667 Z M52.8397163,9.00567376 L52.8397163,9.00567376 L52.8397163,10.7673759 L52.8397163,10.7673759 L52.8397163,16.4624113 L54.4992908,16.4624113 L54.4992908,8.83120567 L52.8397163,8.83120567 L52.8397163,9.00567376 Z" id="形状" fill="#041030"></path>
                        <path d="M8.1035461,7.14609929 L8.12340426,7.20141844 C8.30066099,7.7171469 8.77583369,8.0715698 9.32069336,8.09445516 C9.86555302,8.11734052 10.3687728,7.80401236 10.5886525,7.30496454 L13,1.86241135 C13.2210133,1.36117867 13.1111189,0.77563882 12.7234043,0.388652482 L12.7234043,0.388652482 C12.4152815,0.0809066119 11.9757108,-0.0559628733 11.5473457,0.0224621952 C11.1189806,0.100887264 10.7564124,0.384612333 10.577305,0.781560284 L8.14893617,6.17163121 C8.01027166,6.47882337 7.99403765,6.82734739 8.1035461,7.14609929 Z" id="路径" fill="#E11F53"></path>
                        <path d="M12.1531915,5.96595745 L12.1531915,5.96595745 C12.2915675,5.65291192 12.5542775,5.4117946 12.8780142,5.30070922 L15.8865248,4.26950355 C16.3305964,4.11697272 16.8227718,4.2309328 17.1546099,4.56312057 L17.1943262,4.60283688 C17.4972496,4.9050525 17.6210751,5.34312755 17.5211824,5.75920242 C17.4212897,6.17527729 17.1120754,6.50938665 16.7049645,6.64113475 L13.658156,7.63404255 C13.1964499,7.78442341 12.6894846,7.6490466 12.3642092,7.2885152 C12.0389339,6.92798381 11.9562576,6.40980876 12.1531915,5.96595745 L12.1531915,5.96595745 Z" id="路径" fill="#E11F53"></path>
                        <path d="M14.777305,8.06950355 L14.7219858,8.08794326 C14.207436,8.26636322 13.8542616,8.74120985 13.8314071,9.28533561 C13.8085526,9.82946136 14.120664,10.3322515 14.6184397,10.5531915 L20.0609929,12.964539 C20.5615573,13.1871083 21.1475083,13.0782647 21.5347518,12.6907801 L21.5347518,12.6907801 C21.8432477,12.383152 21.9807796,11.9435144 21.9025961,11.5149211 C21.8244125,11.0863279 21.540508,10.7235683 21.1432624,10.5446809 L15.7531915,8.11489362 C15.4455899,7.97585602 15.0964843,7.95961855 14.777305,8.06950355 Z" id="路径" fill="#4C8BF5"></path>
                        <path d="M15.9900709,12.1574468 L15.9900709,12.1574468 C16.3031439,12.296218 16.5445739,12.5587089 16.6567376,12.8822695 L17.6879433,15.8865248 C17.8397725,16.3306324 17.7258996,16.8224311 17.3943262,17.1546099 L17.3546099,17.1943262 C17.0525835,17.4951706 16.6162993,17.6181438 16.2016188,17.519314 C15.7869383,17.4204842 15.4530175,17.11395 15.3191489,16.7092199 L14.3262411,13.6624113 C14.1771566,13.2017575 14.3122416,12.6964957 14.6713202,12.3717025 C15.0303988,12.0469093 15.546638,11.9630366 15.9900709,12.1574468 Z" id="路径" fill="#4C8BF5"></path>
                        <path d="M13.8283688,14.7787234 L13.8099291,14.7248227 C13.6308221,14.2119671 13.1570672,13.8601906 12.6143289,13.8370555 C12.0715905,13.8139203 11.5696184,14.1241047 11.3475177,14.6198582 L8.93617021,20.0624113 C8.71378142,20.5634588 8.82257345,21.1496957 9.20992908,21.5375887 L9.20992908,21.5375887 C9.51805181,21.8453345 9.95762252,21.982204 10.3859876,21.9037789 C10.8143527,21.8253539 11.176921,21.5416288 11.3560284,21.1446809 L13.7858156,15.7546099 C13.9239248,15.4466424 13.9391472,15.0975436 13.8283688,14.7787234 L13.8283688,14.7787234 Z" id="路径" fill="#43C6AC"></path>
                        <path d="M9.74042553,15.9886525 L9.74042553,15.9886525 C9.60187323,16.3020938 9.3385466,16.5433051 9.0141844,16.6539007 L6.0070922,17.6851064 C5.56048384,17.840508 5.06433446,17.7263936 4.73049645,17.3914894 L4.69219858,17.351773 C4.39225477,17.0485991 4.27102642,16.6115455 4.37194246,16.1971825 C4.47285849,15.7828195 4.78147539,15.4504526 5.18723404,15.3191489 L8.23404255,14.3262411 C8.69436253,14.17816 9.19874448,14.3132444 9.52343803,14.6715691 C9.84813158,15.0298938 9.93301211,15.5451066 9.74042553,15.9886525 Z" id="路径" fill="#43C6AC"></path>
                        <path d="M7.14609929,13.8652482 L7.20141844,13.8468085 C7.7171469,13.6695518 8.0715698,13.1943791 8.09445516,12.6495194 C8.11734052,12.1046597 7.80401236,11.60144 7.30496454,11.3815603 L1.86241135,8.97021277 C1.36132457,8.74794119 0.775046607,8.85797411 0.388652482,9.24680851 L0.388652482,9.24680851 C0.0809066119,9.55493124 -0.0559628733,9.99450195 0.0224621952,10.422867 C0.100887264,10.8512321 0.384612333,11.2138004 0.781560284,11.3929078 L6.17163121,13.8212766 C6.47900609,13.9594767 6.82752672,13.9752033 7.14609929,13.8652482 L7.14609929,13.8652482 Z" id="路径" fill="#F8B233"></path>
                        <path d="M5.90921986,9.81985816 L5.90921986,9.81985816 C5.59809825,9.68010464 5.35878931,9.41768646 5.24822695,9.09503546 L4.21276596,6.08794326 C4.05771944,5.64131563 4.17178969,5.14535799 4.50638298,4.81134752 L4.54609929,4.77163121 C4.84894581,4.46960884 5.28683678,4.34639656 5.70274179,4.44617906 C6.1186468,4.54596155 6.45296795,4.8544403 6.5858156,5.26099291 L7.5787234,8.30780142 C7.7335069,8.77079808 7.59977172,9.281512 7.23793322,9.6092264 C6.87609471,9.9369408 6.3546721,10.0195983 5.90921986,9.81985816 Z" id="路径" fill="#F8B233"></path>
                    </g>
                </g>
            </g>
        </g>
    </g>
</svg>